#Comment line ignore any data following # character 
#Hierarchical Translation and Rotation (.htr) file 
[Header]	
#Header keywords are followed by a single value 
FileType HTR		#Single word string
DataType HTRS		#Translation followed by rotation and scale data
FileVersion 1		#integer
NumSegments 84		#integer
NumFrames 2		#integer
DataFrameRate 30		#integer, data frame rate in this file
EulerRotationOrder ZYX
CalibrationUnits mm
RotationUnits Degrees
GlobalAxisofGravity Y
BoneLengthAxis Y
ScaleFactor 1.00
[SegmentNames&Hierarchy]
#CHILD	PARENT
MASTER GLOBAL
root MASTER
chest root
L_mid_tent01 root
R_mid_tent01 root
spine01 root
Bip01_Neck chest
L_humerus chest
R_humerus chest
weapon_bone chest
Bip01_Head Bip01_Neck
eye_left_bone Bip01_Head
eye_right_bone Bip01_Head
L_forearm L_humerus
L_front_hand L_forearm
L_weapon_bone L_forearm
L_front_hand01_01 L_front_hand
L_front_hand02_01 L_front_hand
L_front_hand03_01 L_front_hand
L_front_hand01_02 L_front_hand01_01
L_front_hand02_02 L_front_hand02_01
L_front_hand03_02 L_front_hand03_01
R_forearm R_humerus
R_front_hand R_forearm
R_weapon_bone R_forearm
R_front_hand01_01 R_front_hand
R_front_hand02_01 R_front_hand
R_front_hand03_01 R_front_hand
R_front_hand01_02 R_front_hand01_01
R_front_hand02_02 R_front_hand02_01
R_front_hand03_02 R_front_hand03_01
null_rope01_connect L_mid_tent01
Rope1_Seg01 null_rope01_connect
Rope1_Seg02 Rope1_Seg01
Rope1_Seg03 Rope1_Seg02
Rope1_Seg04 Rope1_Seg03
Rope1_Seg05 Rope1_Seg04
Rope1_Seg06 Rope1_Seg05
Rope1_Seg07 Rope1_Seg06
Rope1_Seg09 Rope1_Seg07
L_mid_hand01 Rope1_Seg09
L_mid_hand02 Rope1_Seg09
L_mid_hand03 Rope1_Seg09
null_rope02_connect R_mid_tent01
Rope2_Seg01 null_rope02_connect
Rope2_Seg02 Rope2_Seg01
Rope2_Seg03 Rope2_Seg02
Rope2_Seg04 Rope2_Seg03
Rope2_Seg05 Rope2_Seg04
Rope2_Seg06 Rope2_Seg05
Rope2_Seg07 Rope2_Seg06
Rope2_Seg09 Rope2_Seg07
R_mid_hand01 Rope2_Seg09
R_mid_hand02 Rope2_Seg09
R_mid_hand03 Rope2_Seg09
spine02 spine01
spine03 spine02
pelvis spine03
null_rope03_connect pelvis
null_rope04_connect pelvis
Rope3_Seg01 null_rope03_connect
Rope3_Seg02 Rope3_Seg01
Rope3_Seg03 Rope3_Seg02
Rope3_Seg04 Rope3_Seg03
Rope3_Seg05 Rope3_Seg04
Rope3_Seg06 Rope3_Seg05
Rope3_Seg07 Rope3_Seg06
Rope3_Seg08 Rope3_Seg07
Rope3_Seg09 Rope3_Seg08
R_rear_hand01 Rope3_Seg09
R_rear_hand02 Rope3_Seg09
R_rear_hand03 Rope3_Seg09
Rope4_Seg01 null_rope04_connect
Rope4_Seg02 Rope4_Seg01
Rope4_Seg03 Rope4_Seg02
Rope4_Seg04 Rope4_Seg03
Rope4_Seg05 Rope4_Seg04
Rope4_Seg06 Rope4_Seg05
Rope4_Seg07 Rope4_Seg06
Rope4_Seg08 Rope4_Seg07
Rope4_Seg09 Rope4_Seg08
L_rear_hand01 Rope4_Seg09
L_rear_hand02 Rope4_Seg09
L_rear_hand03 Rope4_Seg09
[BasePosition]
#SegmentName Tx, Ty, Tz, Rx, Ry, Rz, BoneLength
MASTER 0.000000 0.000000 0.000000 -90.000000 0.000000 0.000000 10.000000 
root 0.000000 0.000000 0.000000 0.000000 0.000000 0.000000 10.000000 
chest 0.000000 0.000000 0.000000 0.000000 0.000000 0.000000 10.000000 
L_mid_tent01 0.000000 0.000000 0.000000 0.000000 0.000000 0.000000 10.000000 
R_mid_tent01 0.000000 0.000000 0.000000 0.000000 0.000000 0.000000 10.000000 
spine01 0.000000 0.000000 0.000000 0.000000 0.000000 0.000000 10.000000 
Bip01_Neck 0.000000 0.000000 0.000000 0.000000 0.000000 0.000000 10.000000 
L_humerus 0.000000 0.000000 0.000000 0.000000 0.000000 0.000000 10.000000 
R_humerus 0.000000 0.000000 0.000000 0.000000 0.000000 0.000000 10.000000 
weapon_bone 0.000000 0.000000 0.000000 0.000000 0.000000 0.000000 10.000000 
Bip01_Head 0.000000 0.000000 0.000000 0.000000 0.000000 0.000000 10.000000 
eye_left_bone 0.000000 0.000000 0.000000 0.000000 0.000000 0.000000 10.000000 
eye_right_bone 0.000000 0.000000 0.000000 0.000000 0.000000 0.000000 10.000000 
L_forearm 0.000000 0.000000 0.000000 0.000000 0.000000 0.000000 10.000000 
L_front_hand 0.000000 0.000000 0.000000 0.000000 0.000000 0.000000 10.000000 
L_weapon_bone 0.000000 0.000000 0.000000 0.000000 0.000000 0.000000 10.000000 
L_front_hand01_01 0.000000 0.000000 0.000000 0.000000 0.000000 0.000000 10.000000 
L_front_hand02_01 0.000000 0.000000 0.000000 0.000000 0.000000 0.000000 10.000000 
L_front_hand03_01 0.000000 0.000000 0.000000 0.000000 0.000000 0.000000 10.000000 
L_front_hand01_02 0.000000 0.000000 0.000000 0.000000 0.000000 0.000000 10.000000 
L_front_hand02_02 0.000000 0.000000 0.000000 0.000000 0.000000 0.000000 10.000000 
L_front_hand03_02 0.000000 0.000000 0.000000 0.000000 0.000000 0.000000 10.000000 
R_forearm 0.000000 0.000000 0.000000 0.000000 0.000000 0.000000 10.000000 
R_front_hand 0.000000 0.000000 0.000000 0.000000 0.000000 0.000000 10.000000 
R_weapon_bone 0.000000 0.000000 0.000000 0.000000 0.000000 0.000000 10.000000 
R_front_hand01_01 0.000000 0.000000 0.000000 0.000000 0.000000 0.000000 10.000000 
R_front_hand02_01 0.000000 0.000000 0.000000 0.000000 0.000000 0.000000 10.000000 
R_front_hand03_01 0.000000 0.000000 0.000000 0.000000 0.000000 0.000000 10.000000 
R_front_hand01_02 0.000000 0.000000 0.000000 0.000000 0.000000 0.000000 10.000000 
R_front_hand02_02 0.000000 0.000000 0.000000 0.000000 0.000000 0.000000 10.000000 
R_front_hand03_02 0.000000 0.000000 0.000000 0.000000 0.000000 0.000000 10.000000 
null_rope01_connect 0.000000 0.000000 0.000000 0.000000 0.000000 0.000000 10.000000 
Rope1_Seg01 0.000000 0.000000 0.000000 0.000000 0.000000 0.000000 10.000000 
Rope1_Seg02 0.000000 0.000000 0.000000 0.000000 0.000000 0.000000 10.000000 
Rope1_Seg03 0.000000 0.000000 0.000000 0.000000 0.000000 0.000000 10.000000 
Rope1_Seg04 0.000000 0.000000 0.000000 0.000000 0.000000 0.000000 10.000000 
Rope1_Seg05 0.000000 0.000000 0.000000 0.000000 0.000000 0.000000 10.000000 
Rope1_Seg06 0.000000 0.000000 0.000000 0.000000 0.000000 0.000000 10.000000 
Rope1_Seg07 0.000000 0.000000 0.000000 0.000000 0.000000 0.000000 10.000000 
Rope1_Seg09 0.000000 0.000000 0.000000 0.000000 0.000000 0.000000 10.000000 
L_mid_hand01 0.000000 0.000000 0.000000 0.000000 0.000000 0.000000 10.000000 
L_mid_hand02 0.000000 0.000000 0.000000 0.000000 0.000000 0.000000 10.000000 
L_mid_hand03 0.000000 0.000000 0.000000 0.000000 0.000000 0.000000 10.000000 
null_rope02_connect 0.000000 0.000000 0.000000 0.000000 0.000000 0.000000 10.000000 
Rope2_Seg01 0.000000 0.000000 0.000000 0.000000 0.000000 0.000000 10.000000 
Rope2_Seg02 0.000000 0.000000 0.000000 0.000000 0.000000 0.000000 10.000000 
Rope2_Seg03 0.000000 0.000000 0.000000 0.000000 0.000000 0.000000 10.000000 
Rope2_Seg04 0.000000 0.000000 0.000000 0.000000 0.000000 0.000000 10.000000 
Rope2_Seg05 0.000000 0.000000 0.000000 0.000000 0.000000 0.000000 10.000000 
Rope2_Seg06 0.000000 0.000000 0.000000 0.000000 0.000000 0.000000 10.000000 
Rope2_Seg07 0.000000 0.000000 0.000000 0.000000 0.000000 0.000000 10.000000 
Rope2_Seg09 0.000000 0.000000 0.000000 0.000000 0.000000 0.000000 10.000000 
R_mid_hand01 0.000000 0.000000 0.000000 0.000000 0.000000 0.000000 10.000000 
R_mid_hand02 0.000000 0.000000 0.000000 0.000000 0.000000 0.000000 10.000000 
R_mid_hand03 0.000000 0.000000 0.000000 0.000000 0.000000 0.000000 10.000000 
spine02 0.000000 0.000000 0.000000 0.000000 0.000000 0.000000 10.000000 
spine03 0.000000 0.000000 0.000000 0.000000 0.000000 0.000000 10.000000 
pelvis 0.000000 0.000000 0.000000 0.000000 0.000000 0.000000 10.000000 
null_rope03_connect 0.000000 0.000000 0.000000 0.000000 0.000000 0.000000 10.000000 
null_rope04_connect 0.000000 0.000000 0.000000 0.000000 0.000000 0.000000 10.000000 
Rope3_Seg01 0.000000 0.000000 0.000000 0.000000 0.000000 0.000000 10.000000 
Rope3_Seg02 0.000000 0.000000 0.000000 0.000000 0.000000 0.000000 10.000000 
Rope3_Seg03 0.000000 0.000000 0.000000 0.000000 0.000000 0.000000 10.000000 
Rope3_Seg04 0.000000 0.000000 0.000000 0.000000 0.000000 0.000000 10.000000 
Rope3_Seg05 0.000000 0.000000 0.000000 0.000000 0.000000 0.000000 10.000000 
Rope3_Seg06 0.000000 0.000000 0.000000 0.000000 0.000000 0.000000 10.000000 
Rope3_Seg07 0.000000 0.000000 0.000000 0.000000 0.000000 0.000000 10.000000 
Rope3_Seg08 0.000000 0.000000 0.000000 0.000000 0.000000 0.000000 10.000000 
Rope3_Seg09 0.000000 0.000000 0.000000 0.000000 0.000000 0.000000 10.000000 
R_rear_hand01 0.000000 0.000000 0.000000 0.000000 0.000000 0.000000 10.000000 
R_rear_hand02 0.000000 0.000000 0.000000 0.000000 0.000000 0.000000 10.000000 
R_rear_hand03 0.000000 0.000000 0.000000 0.000000 0.000000 0.000000 10.000000 
Rope4_Seg01 0.000000 0.000000 0.000000 0.000000 0.000000 0.000000 10.000000 
Rope4_Seg02 0.000000 0.000000 0.000000 0.000000 0.000000 0.000000 10.000000 
Rope4_Seg03 0.000000 0.000000 0.000000 0.000000 0.000000 0.000000 10.000000 
Rope4_Seg04 0.000000 0.000000 0.000000 0.000000 0.000000 0.000000 10.000000 
Rope4_Seg05 0.000000 0.000000 0.000000 0.000000 0.000000 0.000000 10.000000 
Rope4_Seg06 0.000000 0.000000 0.000000 0.000000 0.000000 0.000000 10.000000 
Rope4_Seg07 0.000000 0.000000 0.000000 0.000000 0.000000 0.000000 10.000000 
Rope4_Seg08 0.000000 0.000000 0.000000 0.000000 0.000000 0.000000 10.000000 
Rope4_Seg09 0.000000 0.000000 0.000000 0.000000 0.000000 0.000000 10.000000 
L_rear_hand01 0.000000 0.000000 0.000000 0.000000 0.000000 0.000000 10.000000 
L_rear_hand02 0.000000 0.000000 0.000000 0.000000 0.000000 0.000000 10.000000 
L_rear_hand03 0.000000 0.000000 0.000000 0.000000 0.000000 0.000000 10.000000 
#Beginning of Data. Separated by tabs
#Fr	Tx	Ty	Tz	Rx	Ry	Rz	SF
[MASTER]
34 -115.823105 4092.468750 352.375580 0.001660 0.001660 0.001660 4109.243652
35 -115.823105 4091.958984 352.352112 0.001660 0.001660 0.001660 4108.733887
[root]
34 2.696667 444.668884 1104.892578 -96.235046 -37.029205 -86.953659 1191.018677
35 2.696667 444.668884 1104.892578 -96.235016 -37.029194 -86.953636 1191.018677
[chest]
34 -84.512650 -34.090519 0.000000 -12.861987 -27.760601 151.713394 91.129311
35 -84.512650 -34.090519 0.000000 -12.933562 -27.569841 151.868286 91.129311
[L_mid_tent01]
34 27.299160 22.179022 -249.918701 -5.679687 34.380268 58.101429 252.381683
35 27.299162 22.179018 -249.918701 -6.677707 33.768246 56.063061 252.381683
[R_mid_tent01]
34 23.228794 24.509907 226.238495 176.520889 -30.128326 54.455128 228.744751
35 23.228794 24.509907 226.238495 177.379257 -29.838936 53.156948 228.744751
[spine01]
34 -0.361383 -0.195265 0.000000 -0.000001 -0.000007 22.052340 0.410763
35 -0.361383 -0.195265 0.000000 -0.000001 -0.000007 22.052340 0.410763
[Bip01_Neck]
34 165.484543 71.581718 0.000119 176.643677 -1.657967 43.431911 180.302734
35 165.484543 71.581718 0.000119 176.643677 -1.657967 43.431911 180.302734
[L_humerus]
34 -13.983130 -135.272980 -120.471481 137.314590 80.213753 -131.640930 181.680161
35 -13.983130 -135.272980 -120.471481 128.408875 81.944580 -140.663986 181.680161
[R_humerus]
34 -13.983309 -135.273102 125.287651 -172.678223 -78.120110 -92.348267 184.909012
35 -13.983309 -135.273102 125.287651 -173.293442 -80.395798 -91.746552 184.909012
[weapon_bone]
34 235.964890 -300.705902 0.000000 0.000000 -89.951546 -128.212341 382.234833
35 235.964890 -300.705902 0.000000 0.000000 -89.951546 -128.212341 382.234833
[Bip01_Head]
34 217.315979 193.779907 33.482857 32.574516 13.922997 -44.059910 293.083588
35 203.285828 162.408447 31.616476 23.806807 3.341907 -49.228695 262.109192
[eye_left_bone]
34 -24.626970 125.451866 -64.772606 0.000000 -90.000000 -99.840431 143.318359
35 -24.626970 125.451866 -64.772606 0.000000 -90.000000 -99.840431 143.318359
[eye_right_bone]
34 -24.626970 125.451866 64.327362 0.000000 -89.965736 80.156380 143.117676
35 -24.626970 125.451866 64.327362 0.000000 -89.965736 80.156380 143.117676
[L_forearm]
34 322.776093 0.000000 -0.000119 0.000321 -0.002325 -105.742096 322.776093
35 322.776093 0.000000 -0.000119 0.000309 -0.002327 -105.132957 322.776093
[L_front_hand]
34 241.149185 -0.042021 -3.300071 0.836590 -1.835725 -27.423458 241.171753
35 241.149185 -0.042021 -3.300071 0.836591 -1.835726 -27.423458 241.171753
[L_weapon_bone]
34 156.183838 0.000000 0.000000 0.000014 0.000007 0.000001 156.183838
35 156.183838 0.000000 0.000000 0.000014 0.000007 0.000001 156.183838
[L_front_hand01_01]
34 86.095154 20.947098 -0.655860 -0.366594 -0.477154 75.385574 88.609184
35 86.095154 20.947098 -0.655860 -0.366594 -0.477154 75.385574 88.609184
[L_front_hand02_01]
34 86.935165 -11.437475 24.513514 154.399796 -59.883835 -61.369587 91.046425
35 86.935165 -11.437475 24.513514 154.399811 -59.883846 -61.369606 91.046425
[L_front_hand03_01]
34 86.637497 -14.123976 -20.424902 -153.913849 58.118122 -62.702866 90.126129
35 86.637497 -14.123976 -20.424902 -153.913849 58.118122 -62.702866 90.126129
[L_front_hand01_02]
34 71.020905 -0.000179 0.000030 0.000334 -0.002323 -106.379684 71.020905
35 71.020905 -0.000179 0.000030 0.000334 -0.002323 -106.379684 71.020905
[L_front_hand02_02]
34 71.020927 -0.000119 0.000060 0.000334 -0.002323 -106.379684 71.020927
35 71.020927 -0.000119 0.000060 0.000334 -0.002323 -106.379684 71.020927
[L_front_hand03_02]
34 71.020905 -0.000060 0.000060 0.000334 -0.002323 -106.379684 71.020905
35 71.020905 -0.000060 0.000060 0.000334 -0.002323 -106.379684 71.020905
[R_forearm]
34 322.776428 -0.000060 0.000030 0.204798 0.052357 -104.752296 322.776428
35 322.776428 -0.000060 0.000030 0.208984 0.048186 -104.120277 322.776428
[R_front_hand]
34 238.847015 -0.006795 2.210259 42.936222 -10.646152 -26.312963 238.857239
35 238.847015 -0.006795 2.210259 42.936222 -10.646152 -26.312963 238.857239
[R_weapon_bone]
34 155.664093 0.002503 -0.000030 0.003487 0.001180 -90.988930 155.664078
35 155.664093 0.002503 -0.000030 0.003487 0.001180 -90.988930 155.664078
[R_front_hand01_01]
34 87.624611 14.231146 22.918642 -154.633499 -59.950619 61.746044 91.683487
35 87.624611 14.231146 22.918642 -154.633499 -59.950615 61.746044 91.683487
[R_front_hand02_01]
34 89.356956 14.367283 -19.491137 154.602661 58.302849 63.744389 92.579636
35 89.356956 14.367283 -19.491137 154.602676 58.302864 63.744400 92.579636
[R_front_hand03_01]
34 87.286232 -22.307278 -0.143439 0.162155 -0.423168 -75.767921 90.091743
35 87.286232 -22.307278 -0.143439 0.162155 -0.423168 -75.767921 90.091743
[R_front_hand01_02]
34 71.020905 0.000060 0.000119 0.002323 -0.000334 106.381714 71.020905
35 71.020905 0.000060 0.000119 0.002323 -0.000334 106.381714 71.020905
[R_front_hand02_02]
34 71.020844 -0.000030 -0.000119 0.002323 -0.000334 106.381714 71.020836
35 71.020844 -0.000030 -0.000119 0.002323 -0.000334 106.381714 71.020836
[R_front_hand03_02]
34 71.020905 0.000000 0.000030 0.002323 -0.000334 106.381714 71.020905
35 71.020905 0.000000 0.000030 0.002323 -0.000334 106.381714 71.020905
[null_rope01_connect]
34 328.732483 0.000000 -0.000238 -126.016228 -51.863285 -165.445450 328.732483
35 328.732483 0.000000 -0.000238 -125.974739 -52.313049 -163.733780 328.732483
[Rope1_Seg01]
34 0.000034 -0.000358 0.000000 -11.842464 23.499674 168.581268 0.000360
35 0.000032 -0.000368 0.000000 -12.580044 24.961628 166.703812 0.000369
[Rope1_Seg02]
34 139.999863 -0.000179 0.000000 4.339164 3.575254 20.747923 139.999863
35 139.999863 -0.000179 0.000000 3.527759 2.839270 20.857113 139.999863
[Rope1_Seg03]
34 139.999924 0.000060 -0.000060 0.856263 -1.538278 5.309315 139.999924
35 139.999924 0.000060 -0.000060 0.611052 -2.585549 5.917039 139.999924
[Rope1_Seg04]
34 139.999924 -0.000060 -0.000119 26.369617 17.109673 36.023476 139.999924
35 139.999924 -0.000060 -0.000119 23.967279 15.679355 33.826439 139.999924
[Rope1_Seg05]
34 139.999832 0.000119 -0.000060 29.155972 30.288618 29.611620 139.999832
35 139.999832 0.000119 -0.000060 31.825953 30.900610 32.501320 139.999832
[Rope1_Seg06]
34 139.999954 0.000119 -0.000060 3.661942 9.582854 3.556621 139.999954
35 139.999954 0.000119 -0.000060 3.917400 10.035180 3.798739 139.999954
[Rope1_Seg07]
34 139.999985 0.000060 0.000000 1.376444 4.680077 1.419238 139.999985
35 139.999985 0.000060 0.000000 1.440454 4.841989 1.478443 139.999985
[Rope1_Seg09]
34 121.602913 0.000119 -0.000089 -89.793175 -1.359789 0.847147 121.602913
35 121.602913 0.000119 -0.000089 -89.793175 -1.359789 0.847147 121.602913
[L_mid_hand01]
34 103.859421 1.038730 8.195221 130.544373 -67.584534 -38.866943 104.187431
35 103.859421 1.038730 8.195221 130.544373 -67.584534 -38.866943 104.187431
[L_mid_hand02]
34 105.572853 -4.139662 -10.864139 -168.923172 43.409309 -73.498886 106.211075
35 105.572853 -4.139662 -10.864139 -168.923172 43.409321 -73.498909 106.211075
[L_mid_hand03]
34 104.641464 17.579376 -3.913581 -6.012627 17.808174 74.893669 106.179977
35 104.641464 17.579376 -3.913581 -6.012627 17.808178 74.893677 106.179977
[null_rope02_connect]
34 328.732849 0.000179 -0.000119 -91.829659 60.938061 15.811036 328.732849
35 328.732849 0.000179 -0.000119 -92.059990 61.329594 14.501344 328.732849
[Rope2_Seg01]
34 0.000095 0.000392 0.000000 80.312141 25.924160 12.945813 0.000403
35 0.000095 0.000400 0.000000 80.368652 26.571924 13.339165 0.000411
[Rope2_Seg02]
34 139.999741 -0.000060 -0.000119 -2.225519 -4.788745 -4.674401 139.999756
35 139.999741 -0.000060 -0.000119 -2.097642 -4.696481 -4.537509 139.999756
[Rope2_Seg03]
34 140.000107 0.000030 0.000000 -3.921791 -7.111870 -7.594518 140.000107
35 140.000107 0.000030 0.000000 -3.681195 -6.991748 -7.338984 140.000107
[Rope2_Seg04]
34 139.999802 0.000000 -0.000060 -7.744719 -10.869083 -14.853793 139.999802
35 139.999802 0.000000 -0.000060 -7.338908 -10.815034 -14.278985 139.999802
[Rope2_Seg05]
34 139.999985 -0.000060 0.000119 -10.468795 -10.742929 -21.446182 139.999985
35 139.999985 -0.000060 0.000119 -10.439702 -11.253155 -21.482262 139.999985
[Rope2_Seg06]
34 139.999893 -0.000030 -0.000119 -6.606546 -8.029852 -11.833822 139.999893
35 139.999893 -0.000030 -0.000119 -6.739495 -8.049743 -12.144006 139.999893
[Rope2_Seg07]
34 139.999893 0.000060 -0.000060 -6.547154 -8.273376 -9.971269 139.999893
35 139.999893 0.000060 -0.000060 -6.435683 -8.229686 -9.754047 139.999893
[Rope2_Seg09]
34 121.338966 0.000089 -0.000060 33.793236 -1.359788 -0.847141 121.338966
35 121.338966 0.000089 -0.000060 33.793236 -1.359788 -0.847141 121.338966
[R_mid_hand01]
34 104.680779 11.144459 -10.335981 -16.212063 45.237240 70.462845 105.778534
35 104.680779 11.144459 -10.335981 -16.212063 45.237247 70.462852 105.778534
[R_mid_hand02]
34 104.070427 2.443552 8.231699 49.067375 -67.749794 39.286461 104.424065
35 104.070427 2.443552 8.231699 49.067368 -67.749771 39.286453 104.424065
[R_mid_hand03]
34 106.028137 -11.221827 -5.996406 -177.101105 15.551026 -76.585571 106.788818
35 106.028137 -11.221827 -5.996406 -177.101105 15.551026 -76.585571 106.788818
[spine02]
34 129.756927 0.001550 0.000119 0.494724 -4.029522 -14.877364 129.756927
35 129.756927 0.001550 0.000119 0.488052 -4.030365 -14.780669 129.756927
[spine03]
34 78.613968 0.081720 -4.898995 1.977126 3.790321 17.695438 78.766502
35 78.613968 0.081722 -4.898995 1.973262 3.792329 17.634611 78.766502
[pelvis]
34 169.435242 0.051022 0.000000 -0.069239 -0.178164 16.564434 169.435257
35 169.435242 0.051022 0.000000 -0.069066 -0.178231 16.453215 169.435257
[null_rope03_connect]
34 -1.257226 -2.466202 137.391083 -178.817093 -86.121010 -95.468315 137.418976
35 -1.257226 -2.466202 137.391083 -178.759735 -86.116371 -95.441185 137.418976
[null_rope04_connect]
34 -1.259640 -2.480268 -137.844437 -178.817093 -86.121010 -95.468315 137.872513
35 -1.259640 -2.480268 -137.844437 -178.759735 -86.116371 -95.441185 137.872513
[Rope3_Seg01]
34 0.000000 0.000000 0.000000 -91.843971 -73.541199 48.941494 0.000000
35 0.000000 0.000000 0.000000 -91.893639 -73.536598 48.994255 0.000000
[Rope3_Seg02]
34 139.999924 -0.000119 0.000060 0.409591 18.768391 -1.163086 139.999924
35 139.999924 -0.000119 0.000060 0.405839 18.736828 -1.161617 139.999924
[Rope3_Seg03]
34 139.999924 -0.000119 0.000119 5.793151 25.631413 1.807486 139.999924
35 139.999924 -0.000119 0.000119 5.781853 25.632919 1.796737 139.999924
[Rope3_Seg04]
34 139.999924 0.000119 0.000000 8.923864 21.394409 -3.505923 139.999924
35 139.999924 0.000119 0.000000 8.921347 21.404171 -3.476492 139.999924
[Rope3_Seg05]
34 139.999924 -0.000238 0.000060 7.863642 30.068699 -33.382893 139.999924
35 139.999924 -0.000238 0.000060 7.881561 30.070427 -33.346107 139.999924
[Rope3_Seg06]
34 139.999893 -0.000119 -0.000060 0.894309 12.454405 -23.069332 139.999893
35 139.999893 -0.000119 -0.000060 0.899189 12.476055 -23.108898 139.999893
[Rope3_Seg07]
34 139.999771 0.000060 -0.000119 0.026609 4.444132 -8.279922 139.999771
35 139.999771 0.000060 -0.000119 0.026716 4.449424 -8.289857 139.999771
[Rope3_Seg08]
34 139.999985 -0.000060 0.000000 0.168809 2.069896 -3.896500 139.999985
35 139.999985 -0.000060 0.000000 0.168686 2.071646 -3.899995 139.999985
[Rope3_Seg09]
34 90.185997 -0.000179 -0.000060 89.793228 -1.359877 -0.847183 90.185997
35 90.185997 -0.000179 -0.000060 89.793228 -1.359877 -0.847183 90.185997
[R_rear_hand01]
34 103.366196 -6.073594 -10.757982 -177.714203 24.565960 -73.910950 104.101845
35 103.366196 -6.073594 -10.757982 -177.714203 24.565960 -73.910950 104.101845
[R_rear_hand02]
34 100.509819 12.039542 -7.992327 -12.874829 36.868488 72.167213 101.543350
35 100.509819 12.039542 -7.992327 -12.874829 36.868488 72.167213 101.543350
[R_rear_hand03]
34 101.539970 5.215704 5.435467 71.484627 -71.816643 21.513803 101.819031
35 101.539970 5.215704 5.435467 71.484581 -71.816628 21.513813 101.819031
[Rope4_Seg01]
34 0.000010 0.000038 -0.000114 -19.162382 -36.531574 163.013123 0.000121
35 0.000010 0.000038 -0.000114 -19.142303 -36.660152 162.987396 0.000121
[Rope4_Seg02]
34 139.999985 0.000060 0.000119 -13.954626 10.032055 19.560726 139.999985
35 139.999985 0.000060 0.000119 -13.819061 10.041293 19.512888 139.999985
[Rope4_Seg03]
34 139.999924 0.000000 -0.000238 -5.913428 9.829477 8.274268 139.999924
35 139.999924 0.000000 -0.000238 -6.041735 9.916473 8.399271 139.999924
[Rope4_Seg04]
34 139.999985 0.000000 0.000119 -41.816319 -7.728829 20.736217 139.999985
35 139.999985 0.000000 0.000119 -41.203846 -7.304783 20.253464 139.999985
[Rope4_Seg05]
34 139.999802 -0.000060 -0.000119 -23.306038 -36.917049 13.174804 139.999802
35 139.999802 -0.000060 -0.000119 -23.926479 -36.799332 13.530851 139.999802
[Rope4_Seg06]
34 139.999924 0.000000 0.000060 -1.767836 -14.035014 0.084747 139.999924
35 139.999924 0.000000 0.000060 -1.844619 -14.349618 0.054428 139.999924
[Rope4_Seg07]
34 139.999802 0.000000 0.000000 -0.264855 -6.676480 -0.059678 139.999802
35 139.999802 0.000000 0.000000 -0.276531 -6.748349 -0.071213 139.999802
[Rope4_Seg08]
34 139.999924 0.000000 0.000119 -1.545642 -3.529438 -0.048037 139.999924
35 139.999924 0.000000 0.000119 -1.550354 -3.567484 -0.055624 139.999924
[Rope4_Seg09]
34 90.185791 0.000060 0.000060 -135.617828 2.228885 0.850567 90.185791
35 90.185791 0.000060 0.000060 -135.617828 2.228885 0.850567 90.185791
[L_rear_hand01]
34 101.696655 -8.392275 -7.654577 -12.874834 -36.868492 107.832779 102.329041
35 101.696655 -8.392275 -7.654577 -12.874827 -36.868492 107.832764 102.329041
[L_rear_hand02]
34 102.726799 -1.568258 5.773216 71.484581 71.816628 158.486160 102.900848
35 102.726799 -1.568258 5.773216 71.484589 71.816643 158.486160 102.900848
[L_rear_hand03]
34 104.552910 9.721220 -10.420293 -177.714203 -24.565960 -106.089035 105.519653
35 104.552910 9.721220 -10.420293 -177.714203 -24.565960 -106.089035 105.519653
